<?xml version="1.0" standalone="no"?>
<!DOCTYPE svg PUBLIC "-//W3C//DTD SVG 20010904//EN"
 "http://www.w3.org/TR/2001/REC-SVG-20010904/DTD/svg10.dtd">
<svg version="1.0" xmlns="http://www.w3.org/2000/svg"
 width="500.000000pt" height="500.000000pt" viewBox="0 0 500.000000 500.000000"
 preserveAspectRatio="xMidYMid meet">

<g transform="translate(0.000000,500.000000) scale(0.100000,-0.100000)"
fill="#000000" stroke="none">
<path d="M2415 3276 c-43 -10 -50 -15 -50 -36 0 -18 -6 -26 -23 -28 -19 -3
-22 -9 -22 -53 0 -27 -2 -49 -4 -49 -1 0 -57 -14 -122 -30 -206 -53 -184 -36
-311 -232 -61 -95 -121 -190 -133 -210 l-22 -37 27 -163 c15 -89 30 -168 33
-174 4 -7 33 -33 64 -58 l57 -47 3 -102 c3 -94 4 -102 23 -102 18 0 20 8 23
78 2 42 5 77 8 77 2 0 57 -43 122 -95 l117 -96 5 -102 c5 -94 7 -102 25 -102
18 0 21 8 25 80 3 44 8 75 12 69 21 -32 60 -24 334 76 153 55 279 100 280 100
2 0 4 -29 4 -63 0 -71 17 -97 63 -97 46 0 57 23 57 115 0 97 -8 88 123 135 47
17 93 40 103 51 15 17 20 48 27 173 l9 152 -105 210 -106 211 -200 113 -200
113 -3 40 c-4 57 -41 84 -96 70 -32 -8 -42 -7 -61 9 -13 10 -26 18 -30 17 -3
0 -28 -6 -56 -13z m60 -36 c3 -6 -1 -7 -9 -4 -18 7 -21 14 -7 14 6 0 13 -4 16
-10z m-24 -17 c13 -17 13 -17 -6 -3 -11 8 -22 16 -24 17 -2 2 0 3 6 3 6 0 17
-8 24 -17z m178 -22 c-1 -17 -3 -20 -6 -8 -4 14 -11 16 -41 11 -48 -9 -48 -9
-13 -30 31 -18 31 -18 31 -109 0 -49 -4 -95 -8 -102 -4 -6 -5 31 -4 82 l4 93
-25 -5 c-15 -3 -26 0 -30 10 -4 11 0 14 16 10 22 -4 22 -4 -1 16 -13 11 -21
25 -17 31 3 5 -3 10 -14 10 -11 0 -22 4 -25 9 -4 5 10 5 32 0 49 -11 60 -11
42 2 -11 8 -8 9 13 4 19 -4 26 -2 22 4 -3 7 0 8 9 5 10 -4 16 -17 15 -33z
m-117 -31 c11 -12 11 -12 -5 -1 -14 11 -25 11 -61 1 l-44 -12 -6 -82 c-11
-148 -13 -152 -14 -34 -1 78 -6 119 -14 124 -18 11 18 20 78 20 33 -1 58 -6
66 -16z m-145 -162 c-2 -29 -3 -6 -3 52 0 58 1 81 3 53 2 -29 2 -77 0 -105z
m483 -11 c80 -43 148 -82 153 -86 11 -11 -528 -155 -549 -147 -44 17 -384 230
-377 237 11 10 234 61 240 55 16 -16 -13 -35 -71 -46 -37 -7 -68 -16 -71 -20
-3 -4 61 -47 141 -94 l146 -86 191 51 c106 28 193 52 195 54 2 2 -40 26 -92
55 l-96 51 0 40 c0 38 1 39 23 28 12 -7 87 -48 167 -92z m-310 -101 c-7 -7
-14 -6 -22 3 -11 10 -10 11 5 6 15 -6 17 1 19 71 l2 79 3 -74 c2 -43 0 -78 -7
-85z m97 86 c-10 -10 -17 -25 -18 -33 0 -11 -2 -11 -6 -1 -5 12 23 52 35 52 3
0 -2 -8 -11 -18z m-312 -18 l30 -26 -33 22 c-20 13 -43 20 -57 18 -14 -3 -22
-1 -19 3 10 17 49 9 79 -17z m375 0 c0 -2 -9 0 -20 6 -11 6 -20 13 -20 16 0 2
9 0 20 -6 11 -6 20 -13 20 -16z m-680 -151 c-35 -76 -65 -141 -67 -145 -2 -3
65 -54 149 -112 l152 -105 77 146 c42 81 82 149 88 151 30 10 16 -39 -48 -171
-39 -79 -71 -149 -71 -155 0 -6 9 -13 19 -17 39 -12 42 -28 20 -99 -11 -37
-24 -66 -28 -64 -4 2 -123 88 -264 191 -170 125 -255 193 -250 200 38 59 61
87 75 90 10 3 15 0 12 -8 -3 -7 1 -15 10 -18 10 -4 33 32 85 140 67 136 73
145 88 130 16 -15 12 -26 -47 -154z m300 121 c0 -2 -13 2 -30 11 -16 9 -30 18
-30 21 0 2 14 -2 30 -11 17 -9 30 -18 30 -21z m436 5 c36 -14 37 -13 -149 -64
-112 -30 -141 -35 -150 -25 -9 10 -9 11 0 6 6 -3 14 -3 17 2 3 5 61 24 130 42
108 29 123 36 113 49 -7 9 -8 12 -1 8 6 -3 24 -11 40 -18z m-506 -90 c72 -44
130 -84 130 -90 0 -5 -21 -48 -46 -95 l-46 -85 -27 17 c-162 106 -163 107
-157 137 3 16 6 67 6 113 0 46 2 84 5 84 3 0 64 -36 135 -81z m120 55 c0 -2
-9 0 -20 6 -11 6 -20 13 -20 16 0 2 9 0 20 -6 11 -6 20 -13 20 -16z m-288
-102 l-3 -93 -46 -20 c-25 -11 -48 -18 -50 -16 -2 2 13 39 33 83 20 43 42 94
50 113 8 19 15 32 17 30 1 -2 1 -46 -1 -97z m358 62 c0 -2 -13 2 -30 11 -16 9
-30 18 -30 21 0 2 14 -2 30 -11 17 -9 30 -18 30 -21z m599 -51 c6 -38 14 -80
17 -94 5 -24 1 -28 -41 -42 -35 -12 -47 -13 -50 -4 -16 50 -43 173 -39 177 6
6 73 27 90 29 7 1 17 -28 23 -66z m-129 -20 c27 -131 49 -225 52 -229 4 -3
158 45 167 52 2 2 -7 13 -20 24 l-24 20 39 -17 c31 -14 43 -29 62 -72 13 -29
24 -55 24 -57 0 -2 -735 -247 -837 -278 l-22 -7 19 67 c11 37 23 71 27 75 5 3
46 19 92 34 l84 28 -24 19 -24 19 23 -11 c13 -6 25 -10 28 -8 2 2 -11 68 -30
146 l-33 142 51 15 c28 8 112 32 186 53 74 22 138 40 142 41 4 0 12 -25 18
-56z m-414 -105 c-3 -24 -9 -78 -12 -120 l-7 -77 -73 -30 c-41 -16 -74 -28
-74 -27 0 2 31 69 70 150 48 101 74 146 86 146 13 0 15 -7 10 -42z m-441 -21
c-16 -13 -12 -18 54 -72 39 -31 71 -59 71 -62 0 -4 -103 66 -158 108 l-22 17
27 10 c40 15 50 14 28 -1z m39 -318 c208 -154 211 -157 211 -193 -3 -184 -6
-237 -15 -234 -5 2 -110 85 -233 186 l-223 183 -18 112 c-10 62 -20 125 -23
141 l-6 30 48 -35 c26 -19 142 -104 259 -190z m1121 9 c-8 -132 -10 -144 -33
-153 -106 -43 -836 -304 -840 -301 -2 3 -1 67 4 142 l9 137 425 143 c234 78
429 143 434 143 4 1 5 -50 1 -111z m-247 -363 c-2 -36 -8 -60 -15 -63 -10 -3
-13 14 -13 61 0 35 3 67 7 71 15 15 24 -14 21 -69z"/>
</g>
</svg>
