<?xml version="1.0" encoding="UTF-8"?>
<svg id="Layer_1" data-name="Layer 1" xmlns="http://www.w3.org/2000/svg" viewBox="0 0 33.9 42.3">
  <path d="M20.1,10.8c.6,.2,1.1,.3,1.6,.5,6.9,2.6,10.7,7.7,12,14.9,.4,2.4,.3,4.8-.5,7.2-1.3,4.2-4.4,6.6-8.4,7.8-5.4,1.6-10.8,1.5-16.1-.3-4.4-1.5-7.5-4.4-8.4-9.2C-1.6,21.8,6,11.1,16,10.6c1,0,1.6-.3,1.9-1.4,1-3,2.9-5.6,5.4-7.6C24.4,.7,25.7,0,27.2,0c1.7,0,3,.9,3.4,2.3,.4,1.3-.3,3-1.7,3.7-1.2,.6-2.4,.8-3.7,1.1-1.8,.4-3.4,1-4.5,2.5-.2,.3-.4,.6-.6,1Zm-6.7,9.7c-1.2-1.1-3-.9-4,.4-1.1,1.3-.8,3.3,.6,4.2,1.1,.8,2.8,.7,3.7-.3,1-1,1.1-2.3,.3-3.4-.2-.3-.4-.6-.6-.8Zm11.1,.7l-.2-.3c-.9-1.2-2.6-1.5-3.9-.5-1.3,1-1.5,2.8-.6,4.1,.9,1.3,2.8,1.5,4.1,.6,1.1-.8,1.7-2.8,.6-3.9Z"/>
  <path d="M24.6,21.2c1.1,1.1,.5,3.1-.6,3.9-1.3,1-3.1,.7-4.1-.6-1-1.3-.7-3.1,.6-4.1,1.3-1,2.9-.7,3.9,.5-.3-.1-.5-.3-.8-.4-.8-.3-1.6-.1-2.2,.6-.6,.7-.6,1.5,0,2.3,.5,.7,1.2,1,2.1,.7,1.2-.3,1.6-1.4,1.1-2.9Z" style="fill: #fff;"/>
  <path d="M14.1,21.4c.8,1.1,.6,2.4-.3,3.4-1,1-2.6,1.1-3.7,.3-1.4-1-1.6-2.9-.6-4.2,1-1.3,2.8-1.5,4-.4-.4,0-.8-.2-1.1-.2-1,0-1.7,.7-1.8,1.6-.1,1,.5,1.9,1.4,2.1,.9,.2,1.9-.3,2.2-1.2,.1-.5,0-1,0-1.5Z" style="fill: #fff;"/>
  <path d="M14.1,21.4c0,.5,.1,1.1,0,1.5-.3,.9-1.3,1.4-2.2,1.2-1-.2-1.6-1.1-1.4-2.1,.1-1,.9-1.7,1.8-1.6,.4,0,.8,.1,1.1,.2,.2,.3,.4,.6,.6,.8Z"/>
  <path d="M24.6,21.2c.4,1.5,0,2.5-1.1,2.9-.8,.2-1.6,0-2.1-.7-.5-.7-.5-1.5,0-2.3,.6-.7,1.3-.9,2.2-.6,.3,0,.5,.3,.8,.4,0,.1,.1,.2,.2,.3Z"/>
</svg>